<?xml version="1.0" encoding="utf-8"?>
<!-- Generator: Adobe Illustrator 24.3.0, SVG Export Plug-In . SVG Version: 6.00 Build 0)  -->
<svg version="1.0" id="katman_1" xmlns="http://www.w3.org/2000/svg" xmlns:xlink="http://www.w3.org/1999/xlink" x="0px" y="0px"
	 viewBox="0 0 3460 2456.67" style="enable-background:new 0 0 3460 2456.67;" xml:space="preserve">
<path d="M674.99,388.07l-58.81,64.16v145.24l52.57,46.33l52.57,45.44h358.2v80.19H776.57v-22.28c0-22.28-0.89-22.28-80.19-22.28
	h-80.19v169.3h61.48c56.14,0,62.37-1.78,76.63-23.17l15.15-23.17l24.06,23.17l24.06,23.17h402.76l54.35-56.14l54.35-55.25V640.24
	L1272,588.56l-57.92-50.79h-348.4v-89.11h267.32v53.46h160.39V323.91h-57.03c-52.57,0-58.81,1.78-74.85,24.06l-18.71,24.95
	l-24.95-24.95l-25.84-24.06H733.8L674.99,388.07z M1373.58,399.65v75.74h62.37v299.39l60.59,59.7l60.59,59.7h356.42l59.7-60.59
	l59.7-60.59V475.39h53.46V323.91h-276.23v75.74c0,74.85,0,75.74,22.28,75.74h22.28v276.23h-187.12V475.39h53.46V323.91h-347.51
	V399.65z M2130.97,399.65v75.74h62.37v276.23h-62.37v142.57h356.42V751.62h-31.19c-31.19,0-31.19,0-31.19-40.1v-40.1h335.04
	l41.88-42.77l41.88-42.77V425.49l-51.68-50.79l-51.68-50.79h-609.48V399.65L2130.97,399.65z M2619.27,521.73l-2.67,47.23
	l-95.34,2.67l-96.23,2.67v-98.91h196.92L2619.27,521.73z M616.18,1014.48v75.74h62.37v276.23h-62.37v151.48h646.9l32.97-33.86
	l32.97-33.86v-199.6h-178.21v115.84H910.23v-89.11h102.47l-2.67-53.46l-3.56-53.46h-96.23v-80.19h240.58v115.84h178.21v-201.38
	l-33.86-32.97l-33.86-32.97H616.18V1014.48L616.18,1014.48z M2209.39,1010.92l-78.41,72.18v289.59l79.3,73.07l79.29,72.18h425.92
	l64.16-65.05l64.16-64.16v-120.29h-178.21v98.02h-302.96v-276.23h302.96v89.11h178.21V938.74h-65.94
	c-63.26,0-66.83,1.78-89.11,27.62l-23.17,27.62l-23.17-27.62l-23.15-27.62h-332.36L2209.39,1010.92z M616.18,1633.76v71.28h62.37
	v285.14h-62.37v142.57h654.92l29.4-35.64c28.51-33.86,28.51-34.75,28.51-132.77v-98.91h-178.21v124.75H910.23v-89.11h98.02v-106.93
	h-98.02v-89.11h240.58v124.75h178.21v-98.91c0-98.02,0-98.92-28.51-132.77l-29.4-35.64H616.18V1633.76z M1373.58,1632.87v71.28
	l29.4,2.67l28.51,2.67l2.67,139.9l2.67,140.79h-63.26v142.57h656.71l27.62-34.75l28.51-35.64v-259.3h-178.21v187.12h-240.58v-285.14
	H1730v-142.57h-356.42V1632.87z M2130.97,1632.87v71.28l29.4,2.67l28.51,2.67l2.67,139.9l2.67,140.79h-63.26v142.57h656.71
	l27.62-34.75l28.51-35.64v-259.3h-178.21v187.12h-240.58v-285.14h62.37v-142.57h-356.42V1632.87z M2084.64,1452.88
	c-2.67-62.37-3.56-64.16-26.73-66.83c-24.06-2.67-24.95-5.36-24.95-54.36c0-50.78,0-51.69-41.88-81.09l-40.99-30.3l34.74-29.4
	c18.72-16.04,37.42-29.4,41.87-29.4c3.56,0,6.24-29.4,6.24-65.05v-65.05l-47.23-46.33l-47.23-46.33h-564.9v151.5h62.37v276.23
	h-62.37v151.48h338.6v-75.74c0-74.85,0-75.74-22.28-75.74c-20.49,0-22.28-2.67-22.28-44.55v-44.55h124.75v174.65l33.86,32.97
	l33.86,32.97h227.22L2084.64,1452.88z M1792.37,1185.46h-124.75v-91.89h124.75V1185.46z"/>
</svg>
